<svg width="13" height="13" viewBox="0 0 13 13" fill="none" xmlns="http://www.w3.org/2000/svg">
<path d="M0.875 12.125L4.625 8.375L0.875 12.125ZM3.375 5.25C3.375 5.82453 3.48816 6.39344 3.70803 6.92424C3.92789 7.45504 4.25015 7.93734 4.65641 8.34359C5.06266 8.74985 5.54496 9.07211 6.07576 9.29197C6.60656 9.51184 7.17547 9.625 7.75 9.625C8.32453 9.625 8.89344 9.51184 9.42424 9.29197C9.95504 9.07211 10.4373 8.74985 10.8436 8.34359C11.2498 7.93734 11.5721 7.45504 11.792 6.92424C12.0118 6.39344 12.125 5.82453 12.125 5.25C12.125 4.08968 11.6641 2.97688 10.8436 2.15641C10.0231 1.33594 8.91032 0.875 7.75 0.875C6.58968 0.875 5.47688 1.33594 4.65641 2.15641C3.83594 2.97688 3.375 4.08968 3.375 5.25Z" stroke="white" stroke-linecap="round" stroke-linejoin="round"/>
</svg>
