<svg width="20" height="20" viewBox="0 0 20 20" fill="none" xmlns="http://www.w3.org/2000/svg">
<path d="M9.96438 0C4.71375 0 0.406875 4.04938 0 9.19625L5.35813 11.4131C5.8282 11.0925 6.38412 10.9213 6.95313 10.9219C7.005 10.9219 7.0575 10.925 7.10938 10.925L9.4925 7.47437V7.42562C9.4925 5.34562 11.1819 3.65625 13.2619 3.65625C15.3419 3.65625 17.0344 5.34875 17.0344 7.42875C17.0331 8.42859 16.6351 9.38704 15.9278 10.0937C15.2205 10.8004 14.2617 11.1976 13.2619 11.1981H13.1775L9.77875 13.6231C9.77875 13.6688 9.78188 13.7112 9.78188 13.7569C9.78188 15.3194 8.51875 16.5856 6.95625 16.5856C5.59563 16.5856 4.44313 15.6088 4.17938 14.3138L0.345 12.725C1.53313 16.9244 5.38438 20.0006 9.96438 20.0006C15.485 20.0006 19.9613 15.525 19.9613 10.0006C19.9613 4.47625 15.4856 0.000625 9.96438 0.000625V0ZM6.26313 15.1756L5.03563 14.6675C5.26169 15.1371 5.65187 15.5078 6.1325 15.7094C6.65275 15.9248 7.23716 15.9251 7.75767 15.7104C8.27818 15.4956 8.69233 15.0833 8.90938 14.5638C9.01706 14.3066 9.07277 14.0307 9.07331 13.7519C9.07384 13.4731 9.01919 13.1969 8.9125 12.9394C8.80725 12.6805 8.65138 12.4451 8.45401 12.2472C8.25665 12.0493 8.02176 11.8928 7.76313 11.7869C7.26479 11.5787 6.70567 11.5693 6.20063 11.7606L7.46688 12.285C8.26438 12.62 8.64188 13.535 8.31 14.3325C7.97813 15.13 7.06 15.5075 6.2625 15.1756H6.26313ZM15.775 7.42188C15.7743 6.7561 15.5098 6.11773 15.0393 5.64666C14.5688 5.17559 13.9308 4.91024 13.265 4.90875C12.5985 4.90875 11.9593 5.17353 11.488 5.64483C11.0167 6.11613 10.7519 6.75535 10.7519 7.42188C10.7519 8.0884 11.0167 8.72762 11.488 9.19892C11.9593 9.67023 12.5985 9.935 13.265 9.935C13.9309 9.93401 14.5693 9.66881 15.0398 9.19764C15.5104 8.72646 15.7748 8.08781 15.775 7.42188ZM11.3838 7.41875C11.3838 6.37375 12.2269 5.53062 13.2688 5.53062C14.3106 5.53062 15.16 6.37375 15.16 7.41875C15.16 8.46062 14.3106 9.30688 13.2688 9.30688C12.2269 9.30688 11.3838 8.46062 11.3838 7.41875Z" fill="white"/>
</svg>
